<?xml version="1.0" standalone="no"?>
<!DOCTYPE svg PUBLIC "-//W3C//DTD SVG 20010904//EN"
 "http://www.w3.org/TR/2001/REC-SVG-20010904/DTD/svg10.dtd">
<svg version="1.0" xmlns="http://www.w3.org/2000/svg"
 width="200.000000pt" height="200.000000pt" viewBox="0 0 200.000000 200.000000"
 preserveAspectRatio="xMidYMid meet">

<g transform="translate(0.000000,200.000000) scale(0.100000,-0.100000)"
fill="#000000" stroke="none">
<path d="M462 1463 l3 -78 75 0 75 0 0 75 0 75 -78 3 -78 3 3 -78z"/>
<path d="M1384 1526 c-3 -7 -4 -42 -2 -77 l3 -64 75 0 75 0 3 78 3 77 -76 0
c-54 0 -77 -4 -81 -14z"/>
<path d="M620 1305 l0 -75 75 0 75 0 0 -75 0 -75 75 0 75 0 0 -80 0 -80 -75 0
-75 0 0 -75 0 -75 -75 0 -75 0 0 -75 0 -75 75 0 75 0 0 75 0 75 75 0 75 0 0
75 0 75 80 0 80 0 0 -75 0 -75 75 0 75 0 0 -75 0 -75 75 0 75 0 0 75 0 75 -75
0 -75 0 0 75 0 75 -75 0 -75 0 0 80 0 80 75 0 75 0 0 75 0 75 75 0 75 0 0 75
0 75 -75 0 -75 0 0 -75 0 -75 -75 0 -75 0 0 -75 0 -75 -80 0 -80 0 0 75 0 75
-75 0 -75 0 0 75 0 75 -75 0 -75 0 0 -75z"/>
<path d="M467 614 c-4 -4 -7 -41 -7 -81 l0 -74 78 3 77 3 0 75 0 75 -70 3
c-39 1 -74 0 -78 -4z"/>
<path d="M1384 607 c-3 -8 -4 -43 -2 -78 l3 -64 78 -3 78 -3 -3 78 -3 78 -73
3 c-55 2 -74 -1 -78 -11z"/>
</g>
</svg>
