<svg width="258" height="258" viewBox="0 0 258 258" fill="none" xmlns="http://www.w3.org/2000/svg">
<circle cx="129" cy="129" r="119" fill="#F5F5F5"/>
<path d="M72.24 125H58.224V116.888H72.24C74.16 116.888 75.68 116.728 76.8 116.408C77.92 116.088 78.72 115.368 79.2 114.248C79.68 113.096 79.92 111.32 79.92 108.92C79.92 106.488 79.68 104.712 79.2 103.592C78.72 102.472 77.92 101.752 76.8 101.432C75.68 101.112 74.16 100.952 72.24 100.952H58.224V92.84H72.24C75.792 92.84 78.864 93.48 81.456 94.76C84.048 96.008 86.048 97.832 87.456 100.232C88.864 102.632 89.568 105.528 89.568 108.92C89.568 112.312 88.864 115.208 87.456 117.608C86.048 120.008 84.048 121.848 81.456 123.128C78.864 124.376 75.792 125 72.24 125ZM64.992 125H55.968V92.84H64.992V125ZM100.164 125H90.0356L103.908 92.84H116.82L130.74 125H120.372L112.74 106.424L110.628 101H110.004L107.94 106.424L100.164 125ZM121.956 119.048H98.2436V110.936H121.956V119.048ZM151.386 125H142.362V92.84H151.386V125ZM162.714 100.952H130.986V92.84H162.714V100.952ZM173.101 125H162.973L176.845 92.84H189.757L203.677 125H193.309L185.677 106.424L183.565 101H182.941L180.877 106.424L173.101 125ZM194.893 119.048H171.181V110.936H194.893V119.048Z" fill="#3E2F60"/>
<path d="M64.464 173H55.44V140.84H64.464V173ZM83.04 173H57.936V164.888H83.04V173ZM93.648 173H83.52L97.392 140.84H110.304L124.224 173H113.856L106.224 154.424L104.112 149H103.488L101.424 154.424L93.648 173ZM115.44 167.048H91.728V158.936H115.44V167.048ZM144.294 173H130.902L124.182 140.84H134.262L136.95 157.208L137.814 164.456H138.438L139.734 157.208L144.054 140.84H157.638L161.574 157.208L162.726 164.456H163.35L164.31 157.208L167.334 140.84H177.222L169.878 173H156.486L153.126 159.224L151.014 149.144H150.39L148.134 159.224L144.294 173ZM194.696 173.48C191.432 173.48 188.616 173.08 186.248 172.28C183.88 171.448 182.056 170.184 180.776 168.488C179.496 166.76 178.856 164.536 178.856 161.816V161.528H187.88V162.536C187.88 163.24 188.024 163.8 188.312 164.216C188.632 164.6 189.272 164.872 190.232 165.032C191.192 165.192 192.68 165.272 194.696 165.272C196.52 165.272 197.864 165.224 198.728 165.128C199.592 165 200.136 164.808 200.36 164.552C200.616 164.264 200.744 163.88 200.744 163.4C200.744 162.824 200.52 162.392 200.072 162.104C199.656 161.816 198.792 161.592 197.48 161.432L187.4 160.088C185.416 159.8 183.752 159.272 182.408 158.504C181.064 157.704 180.056 156.664 179.384 155.384C178.712 154.104 178.376 152.6 178.376 150.872C178.376 149.592 178.648 148.328 179.192 147.08C179.736 145.832 180.616 144.712 181.832 143.72C183.048 142.696 184.648 141.88 186.632 141.272C188.616 140.664 191.064 140.36 193.976 140.36C197.4 140.36 200.216 140.84 202.424 141.8C204.664 142.728 206.328 144.072 207.416 145.832C208.536 147.56 209.096 149.624 209.096 152.024V152.312H200.072V151.592C200.072 150.824 199.896 150.216 199.544 149.768C199.224 149.32 198.552 149 197.528 148.808C196.536 148.616 195.032 148.52 193.016 148.52C191.48 148.52 190.312 148.6 189.512 148.76C188.712 148.888 188.152 149.096 187.832 149.384C187.544 149.672 187.4 150.056 187.4 150.536C187.4 150.856 187.464 151.144 187.592 151.4C187.752 151.624 187.992 151.8 188.312 151.928C188.664 152.056 189.128 152.168 189.704 152.264L199.784 153.752C202.408 154.136 204.44 154.808 205.88 155.768C207.32 156.696 208.328 157.8 208.904 159.08C209.48 160.36 209.768 161.688 209.768 163.064C209.768 164.888 209.256 166.6 208.232 168.2C207.24 169.768 205.64 171.048 203.432 172.04C201.224 173 198.312 173.48 194.696 173.48Z" fill="#3E2F60"/>
</svg>
