<svg width="12" height="10" viewBox="0 0 12 10" fill="none" xmlns="http://www.w3.org/2000/svg">
<path d="M5.81947 9.25795L1.43879 4.87726C1.08936 4.52783 0.856401 4.12158 0.739924 3.65851C0.626287 3.19545 0.627708 2.73522 0.744185 2.27783C0.860662 1.8176 1.0922 1.41704 1.43879 1.07613C1.7939 0.726695 2.19873 0.495161 2.65328 0.381525C3.11066 0.265048 3.56663 0.265048 4.02117 0.381525C4.47856 0.498002 4.88481 0.729536 5.23992 1.07613L5.81947 1.63863L6.39901 1.07613C6.75697 0.729536 7.16322 0.498002 7.61776 0.381525C8.07231 0.265048 8.52686 0.265048 8.9814 0.381525C9.43879 0.495161 9.84504 0.726695 10.2002 1.07613C10.5467 1.41704 10.7783 1.8176 10.8948 2.27783C11.0112 2.73522 11.0112 3.19545 10.8948 3.65851C10.7811 4.12158 10.5496 4.52783 10.2002 4.87726L5.81947 9.25795ZM5.81947 7.93266L9.53538 4.21249C9.76265 3.98806 9.91322 3.72528 9.98708 3.42414C10.0638 3.123 10.0652 2.82329 9.99134 2.52499C9.91748 2.22385 9.76833 1.96391 9.5439 1.74516C9.31095 1.51505 9.04532 1.36306 8.74703 1.2892C8.45157 1.21249 8.1547 1.21249 7.8564 1.2892C7.55811 1.3659 7.28964 1.51931 7.051 1.74942L5.81947 2.94687L4.58794 1.74942C4.35214 1.51931 4.08367 1.3659 3.78254 1.2892C3.48424 1.21249 3.18595 1.21249 2.88765 1.2892C2.5922 1.36306 2.32799 1.51505 2.09504 1.74516C1.87061 1.96391 1.72146 2.22385 1.64759 2.52499C1.57373 2.82329 1.57515 3.123 1.65186 3.42414C1.72856 3.72528 1.87913 3.98806 2.10356 4.21249L5.81947 7.93266Z" fill="black"/>
</svg>
