<!DOCTYPE svg PUBLIC "-//W3C//DTD SVG 1.1//EN" "http://www.w3.org/Graphics/SVG/1.1/DTD/svg11.dtd">

<!-- Uploaded to: SVG Repo, www.svgrepo.com, Transformed by: SVG Repo Mixer Tools -->
<svg version="1.1" id="Layer_1" xmlns="http://www.w3.org/2000/svg" xmlns:xlink="http://www.w3.org/1999/xlink" viewBox="0 0 512 512" xml:space="preserve" width="800px" height="800px">

<g id="SVGRepo_bgCarrier" stroke-width="0"/>

<g id="SVGRepo_tracerCarrier" stroke-linecap="round" stroke-linejoin="round"/>

<g id="SVGRepo_iconCarrier">
  <g>
    <g>
      <rect x="33.391" y="33.391" width="33.391" height="33.391" fill="#8A4484"/>
    </g>
  </g>
  <g>
    <g>
      <rect x="445.217" y="33.391" width="33.391" height="33.391" fill="#8A4484"/>
    </g>
  </g>
  <g>
    <g>
      <rect x="33.391" y="445.217" width="33.391" height="33.391" fill="#8A4484"/>
    </g>
  </g>
  <g>
    <g>
      <rect x="445.217" y="445.217" width="33.391" height="33.391" fill="#8A4484"/>
    </g>
  </g>
  <g>
    <g>
      <rect y="66.783" width="33.391" height="378.435" fill="#8A4484"/>
    </g>
  </g>
  <g>
    <g>
      <rect x="478.609" y="66.783" width="33.391" height="378.435" fill="#8A4484"/>
    </g>
  </g>
  <g>
    <g>
      <rect x="66.783" width="378.435" height="33.391" fill="#8A4484"/>
    </g>
  </g>
  <g>
    <g>
      <rect x="66.783" y="478.609" width="378.435" height="33.391" fill="#8A4484"/>
    </g>
  </g>
  <g>
    <g>
      <rect x="122.435" y="189.217" width="33.391" height="133.565" fill="#8A4484"/>
    </g>
  </g>
  <g>
    <g>
      <rect x="356.174" y="189.217" width="33.391" height="133.565" fill="#8A4484"/>
    </g>
  </g>
  <g>
    <g>
      <rect x="189.217" y="122.435" width="133.565" height="33.391" fill="#8A4484"/>
    </g>
  </g>
  <g>
    <g>
      <rect x="189.217" y="356.174" width="133.565" height="33.391" fill="#8A4484"/>
    </g>
  </g>
  <g>
    <g>
      <rect x="155.826" y="155.826" width="33.391" height="33.391" fill="#8A4484"/>
    </g>
  </g>
  <g>
    <g>
      <rect x="322.783" y="155.826" width="33.391" height="33.391" fill="#8A4484"/>
    </g>
  </g>
  <g>
    <g>
      <rect x="155.826" y="322.783" width="33.391" height="33.391" fill="#8A4484"/>
    </g>
  </g>
  <g>
    <g>
      <rect x="322.783" y="322.783" width="33.391" height="33.391" fill="#8A4484"/>
    </g>
  </g>
  <g>
    <g>
      <rect x="378.435" y="89.044" width="44.522" height="44.522" fill="#8A4484"/>
    </g>
  </g>
</g>

</svg>
