<svg width="589" height="274" viewBox="0 0 589 274" fill="none" xmlns="http://www.w3.org/2000/svg">
<path d="M116.6 191.4C115.267 195.933 113 199.067 109.8 200.8C106.6 202.533 101.667 203.4 95 203.4C90.6 203.4 85.6 203.333 80 203.2C74.4 203.2 68.8 203.133 63.2 203C57.7333 203 52.6 203 47.8 203C43.6667 203 39.8 203 36.2 203C32.6 203 28.9333 203 25.2 203L24.2 200.2C26.0667 198.2 28.2 194.133 30.6 188C33.1333 181.733 35.8 174.2 38.6 165.4C41.4 156.467 44.1333 146.8 46.8 136.4C49.4667 126 51.9333 115.533 54.2 105C56.6 94.4667 58.4667 84.6 59.8 75.4L37 68.2L37.2 66.6C38.8 66.3333 41.2 66.0667 44.4 65.8C47.7333 65.4 51.4 65.0667 55.4 64.8C59.4 64.5333 63.2667 64.3333 67 64.2C70.8667 63.9333 74.1333 63.8 76.8 63.8L79.6 65.4C78.6667 73.5333 77.2667 82.7333 75.4 93C73.6667 103.133 71.4667 113.533 68.8 124.2C66.2667 134.733 63.5333 144.867 60.6 154.6C57.8 164.333 54.9333 173.067 52 180.8C49.0667 188.533 46.4 194.467 44 198.6H72.8C75.8667 198.6 79.2 198.267 82.8 197.6C86.5333 196.933 89.8 195.867 92.6 194.4C96.3333 192.4 99.9333 189.133 103.4 184.6C106.867 179.933 110 174.4 112.8 168C115.733 161.467 118.2 154.667 120.2 147.6H124C122.8 157.6 121.533 166.4 120.2 174C119 181.6 117.8 187.4 116.6 191.4ZM287.131 65.6C287.131 71.3333 285.798 77.2 283.131 83.2C280.598 89.0667 277.065 94.8 272.531 100.4C267.998 105.867 262.731 110.8 256.731 115.2C250.865 119.467 244.531 122.867 237.731 125.4C230.931 127.933 224.065 129.2 217.131 129.2C208.598 129.2 201.598 126.8 196.131 122C190.665 117.067 187.931 110.667 187.931 102.8C187.931 94.8 189.665 87.8 193.131 81.8C196.598 75.6667 201.198 70.9333 206.931 67.6C212.798 64.1333 219.265 62.4 226.331 62.4C233.931 62.4 239.998 64.4667 244.531 68.6C249.198 72.7333 252.731 78.1333 255.131 84.8C257.665 91.4667 259.198 98.7333 259.731 106.6C265.065 102.067 269.465 97.0667 272.931 91.6C276.531 86 278.331 80.4667 278.331 75C278.331 69.9333 277.665 65.8667 276.331 62.8C275.131 59.7333 273.131 56.7333 270.331 53.8L271.131 53C273.398 53.2667 275.598 53.6 277.731 54C279.998 54.2667 282.065 54.9333 283.931 56C284.998 56.5333 285.798 57.7333 286.331 59.6C286.865 61.3333 287.131 63.3333 287.131 65.6ZM194.531 101.8C194.531 108.733 196.731 114.2 201.131 118.2C205.665 122.2 211.798 124.2 219.531 124.2C222.865 124.2 226.198 123.8 229.531 123C232.998 122.067 236.465 120.8 239.931 119.2C239.931 113.067 239.531 107.067 238.731 101.2C238.065 95.2 236.865 89.8 235.131 85C233.531 80.2 231.265 76.4 228.331 73.6C225.531 70.6667 221.998 69.2 217.731 69.2C214.398 69.2 210.931 70.5333 207.331 73.2C203.731 75.8667 200.665 79.6667 198.131 84.6C195.731 89.4 194.531 95.1333 194.531 101.8ZM239.531 128C243.265 127.067 247.065 125.6 250.931 123.6C254.798 121.467 257.865 119 260.131 116.2C260.131 116.6 260.131 117.133 260.131 117.8C260.131 118.467 260.131 119 260.131 119.4C260.131 128.467 258.598 137.333 255.531 146C252.598 154.533 248.531 162.467 243.331 169.8C238.131 177 232.131 183.333 225.331 188.8C218.531 194.267 211.331 198.533 203.731 201.6C196.131 204.533 188.398 206 180.531 206C173.598 206 167.398 204.533 161.931 201.6C156.465 198.667 152.131 194.267 148.931 188.4C145.865 182.4 144.331 175 144.331 166.2C144.331 160.333 145.065 154.533 146.531 148.8C148.131 142.933 150.265 137.333 152.931 132C155.731 126.533 158.998 121.533 162.731 117C166.465 112.333 170.598 108.333 175.131 105C175.931 105.667 176.865 106.8 177.931 108.4C179.131 110 180.065 111.333 180.731 112.4C175.665 117.733 171.665 124.8 168.731 133.6C165.931 142.4 164.531 151.4 164.531 160.6C164.531 166.6 165.131 172.067 166.331 177C167.665 181.8 169.531 185.933 171.931 189.4C174.465 192.733 177.465 195.333 180.931 197.2C184.398 198.933 188.198 199.8 192.331 199.8C198.198 199.8 203.798 197.733 209.131 193.6C214.598 189.467 219.465 183.933 223.731 177C228.131 170.067 231.665 162.4 234.331 154C237.131 145.467 238.865 136.8 239.531 128ZM304.906 183.2C302.506 190.667 299.24 196.4 295.106 200.4C290.973 204.267 285.573 206.2 278.906 206.2C274.64 206.2 270.44 204.733 266.306 201.8C262.306 198.867 259.373 195.533 257.506 191.8L259.106 189C260.573 191.267 262.706 193.267 265.506 195C268.44 196.6 270.906 197.4 272.906 197.4C278.24 197.4 282.506 192.867 285.706 183.8C289.04 174.867 292.173 165.467 295.106 155.6C298.173 145.733 300.906 136 303.306 126.4C305.84 116.667 307.973 107.467 309.706 98.8C311.573 90 312.906 82.1333 313.706 75.2L291.906 68.2V66.6C293.64 66.3333 296.173 66.0667 299.506 65.8C302.84 65.4 306.506 65.0667 310.506 64.8C314.506 64.5333 318.373 64.3333 322.106 64.2C325.84 63.9333 328.973 63.8 331.506 63.8L334.306 65.2C333.773 70.2667 332.906 76.2 331.706 83C330.506 89.8 328.973 97.2667 327.106 105.4C325.373 113.4 323.306 121.8 320.906 130.6C318.64 139.267 316.173 148.133 313.506 157.2C310.84 166.133 307.973 174.8 304.906 183.2ZM343.82 205.2L342.42 207.6C339.62 207.467 336.687 207.133 333.62 206.6C330.554 206.067 327.22 205.267 323.62 204.2C324.42 198.2 326.087 192.6 328.62 187.4C331.287 182.2 334.954 176.933 339.62 171.6C344.42 166.133 350.42 160.2 357.62 153.8C364.954 147.267 373.887 139.733 384.42 131.2C390.02 126.667 395.287 122.6 400.22 119C405.287 115.4 409.82 112.067 413.82 109C417.954 105.933 421.62 103.067 424.82 100.4C428.02 97.6 430.687 94.8667 432.82 92.2L431.22 89.8C429.887 91.2667 428.22 92.4 426.22 93.2C424.354 94 422.02 94.4 419.22 94.4C416.287 94.4 413.02 93.6667 409.42 92.2C405.82 90.7333 402.02 89.0667 398.02 87.2C394.154 85.2 390.354 83.4667 386.62 82C382.887 80.5333 379.487 79.8 376.42 79.8C372.687 79.8 369.354 81.1333 366.42 83.8C363.62 86.4667 360.62 91.1333 357.42 97.8L353.62 95.4C355.887 90.6 358.154 86.2667 360.42 82.4C362.82 78.5333 365.42 75.2 368.22 72.4C371.02 69.6 374.02 67.4667 377.22 66C380.42 64.5333 383.887 63.8 387.62 63.8C391.754 63.8 395.954 64.6667 400.22 66.4C404.487 68 408.687 69.9333 412.82 72.2C417.087 74.3333 421.22 76.2667 425.22 78C429.354 79.6 433.287 80.4 437.02 80.4C439.154 80.4 440.82 79.7333 442.02 78.4C443.22 77.0667 443.82 75.3333 443.82 73.2C442.22 71.3333 440.287 69.1333 438.02 66.6C435.754 64.0667 434.42 61.6667 434.02 59.4L435.22 57C438.02 57.2667 440.954 57.6667 444.02 58.2C447.087 58.6 450.354 59.3333 453.82 60.4C452.754 67.4667 450.487 74.3333 447.02 81C443.687 87.6667 438.954 94.4 432.82 101.2C426.82 107.867 419.22 114.933 410.02 122.4C400.554 130.267 392.354 136.8 385.42 142C378.487 147.067 372.554 151.4 367.62 155C362.82 158.6 358.554 161.8 354.82 164.6C351.22 167.4 347.887 170.333 344.82 173.4L346.42 175.6C347.887 174.133 349.62 172.867 351.62 171.8C353.754 170.733 356.22 170.2 359.02 170.2C362.354 170.2 366.22 171.333 370.62 173.6C375.02 175.733 379.487 178.267 384.02 181.2C388.687 184 393.087 186.467 397.22 188.6C401.487 190.733 405.22 191.8 408.42 191.8C412.02 191.8 415.154 190.467 417.82 187.8C420.62 185.133 423.687 180.4 427.02 173.6L430.82 175.8C428.687 180.867 426.354 185.267 423.82 189C421.42 192.733 418.82 195.933 416.02 198.6C413.22 201.133 410.287 203 407.22 204.2C404.154 205.533 400.82 206.2 397.22 206.2C392.687 206.2 387.954 205.133 383.02 203C378.087 200.733 373.154 198.133 368.22 195.2C363.287 192.267 358.487 189.733 353.82 187.6C349.287 185.333 345.087 184.2 341.22 184.2C339.087 184.2 337.42 184.867 336.22 186.2C335.02 187.533 334.42 189.333 334.42 191.6C335.887 193.467 337.687 195.6 339.82 198C341.954 200.4 343.287 202.8 343.82 205.2ZM588.303 65.6C588.303 71.3333 586.97 77.2 584.303 83.2C581.77 89.0667 578.236 94.8 573.703 100.4C569.17 105.867 563.903 110.8 557.903 115.2C552.036 119.467 545.703 122.867 538.903 125.4C532.103 127.933 525.236 129.2 518.303 129.2C509.77 129.2 502.77 126.8 497.303 122C491.836 117.067 489.103 110.667 489.103 102.8C489.103 94.8 490.836 87.8 494.303 81.8C497.77 75.6667 502.37 70.9333 508.103 67.6C513.97 64.1333 520.436 62.4 527.503 62.4C535.103 62.4 541.17 64.4667 545.703 68.6C550.37 72.7333 553.903 78.1333 556.303 84.8C558.836 91.4667 560.37 98.7333 560.903 106.6C566.236 102.067 570.636 97.0667 574.103 91.6C577.703 86 579.503 80.4667 579.503 75C579.503 69.9333 578.836 65.8667 577.503 62.8C576.303 59.7333 574.303 56.7333 571.503 53.8L572.303 53C574.57 53.2667 576.77 53.6 578.903 54C581.17 54.2667 583.236 54.9333 585.103 56C586.17 56.5333 586.97 57.7333 587.503 59.6C588.036 61.3333 588.303 63.3333 588.303 65.6ZM495.703 101.8C495.703 108.733 497.903 114.2 502.303 118.2C506.836 122.2 512.97 124.2 520.703 124.2C524.036 124.2 527.37 123.8 530.703 123C534.17 122.067 537.636 120.8 541.103 119.2C541.103 113.067 540.703 107.067 539.903 101.2C539.236 95.2 538.036 89.8 536.303 85C534.703 80.2 532.436 76.4 529.503 73.6C526.703 70.6667 523.17 69.2 518.903 69.2C515.57 69.2 512.103 70.5333 508.503 73.2C504.903 75.8667 501.836 79.6667 499.303 84.6C496.903 89.4 495.703 95.1333 495.703 101.8ZM540.703 128C544.436 127.067 548.236 125.6 552.103 123.6C555.97 121.467 559.036 119 561.303 116.2C561.303 116.6 561.303 117.133 561.303 117.8C561.303 118.467 561.303 119 561.303 119.4C561.303 128.467 559.77 137.333 556.703 146C553.77 154.533 549.703 162.467 544.503 169.8C539.303 177 533.303 183.333 526.503 188.8C519.703 194.267 512.503 198.533 504.903 201.6C497.303 204.533 489.57 206 481.703 206C474.77 206 468.57 204.533 463.103 201.6C457.636 198.667 453.303 194.267 450.103 188.4C447.036 182.4 445.503 175 445.503 166.2C445.503 160.333 446.236 154.533 447.703 148.8C449.303 142.933 451.436 137.333 454.103 132C456.903 126.533 460.17 121.533 463.903 117C467.636 112.333 471.77 108.333 476.303 105C477.103 105.667 478.036 106.8 479.103 108.4C480.303 110 481.236 111.333 481.903 112.4C476.836 117.733 472.836 124.8 469.903 133.6C467.103 142.4 465.703 151.4 465.703 160.6C465.703 166.6 466.303 172.067 467.503 177C468.836 181.8 470.703 185.933 473.103 189.4C475.636 192.733 478.636 195.333 482.103 197.2C485.57 198.933 489.37 199.8 493.503 199.8C499.37 199.8 504.97 197.733 510.303 193.6C515.77 189.467 520.636 183.933 524.903 177C529.303 170.067 532.836 162.4 535.503 154C538.303 145.467 540.036 136.8 540.703 128Z" fill="#F1DCEF" fill-opacity="0.7"/>
</svg>
