<svg width="624" height="274" viewBox="0 0 624 274" fill="none" xmlns="http://www.w3.org/2000/svg">
<path d="M116.4 191.4C115.067 195.933 112.8 199.067 109.6 200.8C106.4 202.533 101.4 203.4 94.6 203.4C90.3333 203.4 85.4 203.333 79.8 203.2C74.2 203.2 68.6 203.2 63 203.2C57.5333 203.2 52.5333 203.2 48 203.2C44.6667 203.2 41.5333 203.133 38.6 203C35.8 203 33.2 203 30.8 203L29.8 200C31.6667 198 33.8667 193.867 36.4 187.6C38.9333 181.2 41.6 173.467 44.4 164.4C47.2 155.2 49.9333 145.333 52.6 134.8C55.4 124.133 57.9333 113.533 60.2 103C62.6 92.3333 64.4667 82.4667 65.8 73.4L42 67.8V66.6C43.0667 66.3333 45 66.0667 47.8 65.8C50.7333 65.4 54 65.0667 57.6 64.8C61.3333 64.5333 64.8667 64.3333 68.2 64.2C71.5333 63.9333 74.2 63.8 76.2 63.8L78.8 65.2C77.8667 73.6 76.4667 82.9333 74.6 93.2C72.7333 103.467 70.4667 113.933 67.8 124.6C65.2667 135.267 62.5333 145.467 59.6 155.2C56.8 164.933 53.9333 173.667 51 181.4C48.2 189 45.6 194.8 43.2 198.8H77.4C80.4667 198.8 83.9333 198.467 87.8 197.8C91.8 197 95.2667 195.867 98.2 194.4C101.667 192.533 104.867 189.267 107.8 184.6C110.867 179.8 113.467 174.133 115.6 167.6C117.733 161.067 119.2 154.4 120 147.6H123.8C122.6 157.333 121.333 166.133 120 174C118.8 181.733 117.6 187.533 116.4 191.4ZM285.411 65.6C285.411 71.3333 284.078 77.2 281.411 83.2C278.878 89.0667 275.344 94.8 270.811 100.4C266.278 105.867 261.011 110.8 255.011 115.2C249.144 119.467 242.811 122.867 236.011 125.4C229.211 127.933 222.344 129.2 215.411 129.2C206.878 129.2 199.878 126.8 194.411 122C188.944 117.067 186.211 110.667 186.211 102.8C186.211 95.2 187.811 88.4 191.011 82.4C194.344 76.4 198.811 71.6667 204.411 68.2C210.011 64.7333 216.411 63 223.611 63C231.211 63 237.211 65.2667 241.611 69.8C246.011 74.3333 249.211 80.2 251.211 87.4C253.344 94.4667 254.544 102 254.811 110C261.078 105.2 266.278 99.7333 270.411 93.6C274.544 87.3333 276.611 81.1333 276.611 75C276.611 69.9333 275.944 65.8667 274.611 62.8C273.411 59.7333 271.411 56.7333 268.611 53.8L269.411 53C271.678 53.2667 273.878 53.6 276.011 54C278.278 54.2667 280.344 54.9333 282.211 56C283.278 56.5333 284.078 57.7333 284.611 59.6C285.144 61.3333 285.411 63.3333 285.411 65.6ZM192.811 101.8C192.811 108.733 195.011 114.2 199.411 118.2C203.944 122.2 210.078 124.2 217.811 124.2C221.678 124.2 225.544 123.667 229.411 122.6C233.411 121.533 237.344 120.067 241.211 118.2C241.211 112.333 240.811 106.467 240.011 100.6C239.211 94.7333 237.944 89.4 236.211 84.6C234.478 79.6667 232.078 75.7333 229.011 72.8C225.944 69.8667 222.078 68.4 217.411 68.4C214.078 68.4 210.478 69.8 206.611 72.6C202.744 75.2667 199.478 79.0667 196.811 84C194.144 88.9333 192.811 94.8667 192.811 101.8ZM240.811 127C243.078 126.333 245.478 125.4 248.011 124.2C250.678 123 252.878 121.533 254.611 119.8C254.611 119.933 254.611 120.267 254.611 120.8C254.611 121.333 254.611 121.667 254.611 121.8C254.611 130.6 253.211 139.133 250.411 147.4C247.744 155.667 244.011 163.333 239.211 170.4C234.411 177.467 228.811 183.667 222.411 189C216.011 194.333 209.144 198.533 201.811 201.6C194.611 204.533 187.211 206 179.611 206C173.078 206 167.278 204.533 162.211 201.6C157.278 198.667 153.411 194.333 150.611 188.6C147.944 182.867 146.611 175.933 146.611 167.8C146.611 162.333 147.211 156.8 148.411 151.2C149.744 145.467 151.611 139.933 154.011 134.6C156.544 129.133 159.544 124 163.011 119.2C166.611 114.4 170.678 110.2 175.211 106.6C175.478 106.867 175.944 107.533 176.611 108.6C177.278 109.533 177.744 110.2 178.011 110.6C172.411 115.933 167.878 123.133 164.411 132.2C161.078 141.267 159.411 150.733 159.411 160.6C159.411 167.133 160.144 172.867 161.611 177.8C163.211 182.733 165.344 186.867 168.011 190.2C170.811 193.533 174.078 196.067 177.811 197.8C181.678 199.4 185.811 200.2 190.211 200.2C196.611 200.2 202.678 198.067 208.411 193.8C214.144 189.4 219.278 183.667 223.811 176.6C228.478 169.4 232.278 161.533 235.211 153C238.144 144.333 240.011 135.667 240.811 127ZM295.898 185C293.632 191.533 290.765 196.733 287.298 200.6C283.965 204.333 279.565 206.2 274.098 206.2C270.365 206.2 266.498 204.733 262.498 201.8C258.632 198.733 255.965 195.4 254.498 191.8L255.898 189.2C257.365 191.467 259.565 193.467 262.498 195.2C265.565 196.933 268.098 197.8 270.098 197.8C275.698 197.8 280.165 193.133 283.498 183.8C287.232 173.8 290.698 163.467 293.898 152.8C297.232 142.133 300.165 131.8 302.698 121.8C305.232 111.667 307.298 102.467 308.898 94.2C310.632 85.8 311.698 78.8 312.098 73.2L289.498 67.8V66.6C290.565 66.3333 292.498 66.0667 295.298 65.8C298.232 65.4 301.498 65.0667 305.098 64.8C308.832 64.5333 312.365 64.3333 315.698 64.2C319.032 63.9333 321.698 63.8 323.698 63.8L326.298 65.2C325.632 70.6667 324.632 76.8667 323.298 83.8C322.098 90.7333 320.565 98.2 318.698 106.2C316.965 114.067 314.898 122.333 312.498 131C310.232 139.667 307.698 148.6 304.898 157.8C302.098 166.867 299.098 175.933 295.898 185ZM333.525 205.2L332.325 207.6C329.792 207.333 327.125 206.933 324.325 206.4C321.525 205.867 318.392 205.133 314.925 204.2C315.592 197.933 317.258 192.133 319.925 186.8C322.725 181.467 326.792 176 332.125 170.4C337.458 164.667 344.392 158.2 352.925 151C361.458 143.667 371.925 134.8 384.325 124.4C389.525 120 394.125 116.067 398.125 112.6C402.258 109.133 405.792 106 408.725 103.2C411.792 100.267 414.392 97.6 416.525 95.2C418.792 92.6667 420.658 90.2667 422.125 88L420.725 86.2C419.792 87.4 418.525 88.4 416.925 89.2C415.325 89.8667 413.392 90.2 411.125 90.2C408.458 90.2 405.392 89.4 401.925 87.8C398.458 86.2 394.792 84.3333 390.925 82.2C387.192 80.0667 383.525 78.2 379.925 76.6C376.458 75 373.325 74.2 370.525 74.2C366.658 74.2 363.258 75.6 360.325 78.4C357.392 81.2 354.192 86.3333 350.725 93.8L346.725 91.6C348.992 86.5333 351.192 82.2667 353.325 78.8C355.592 75.2 357.925 72.3333 360.325 70.2C362.858 67.9333 365.458 66.3333 368.125 65.4C370.925 64.3333 373.992 63.8 377.325 63.8C380.792 63.8 384.458 64.6667 388.325 66.4C392.192 68.1333 396.125 70.1333 400.125 72.4C404.125 74.6667 408.125 76.6667 412.125 78.4C416.125 80.1333 419.992 81 423.725 81C425.992 81 427.792 80.2667 429.125 78.8C430.458 77.3333 431.125 75.4 431.125 73C430.192 71.1333 428.525 68.9333 426.125 66.4C423.858 63.8667 422.458 61.5333 421.925 59.4L423.125 57C425.658 57.2667 428.258 57.6667 430.925 58.2C433.725 58.7333 436.792 59.4667 440.125 60.4C439.325 67.6 437.125 74.4667 433.525 81C430.058 87.5333 424.925 94.3333 418.125 101.4C411.458 108.333 402.858 116.2 392.325 125C382.058 133.667 373.592 140.733 366.925 146.2C360.258 151.667 354.858 156.2 350.725 159.8C346.725 163.267 343.392 166.267 340.725 168.8C338.058 171.333 335.592 173.933 333.325 176.6L334.725 178.4C335.792 177.067 337.192 176 338.925 175.2C340.658 174.267 342.658 173.8 344.925 173.8C347.725 173.8 351.258 175 355.525 177.4C359.792 179.667 364.258 182.333 368.925 185.4C373.725 188.333 378.258 191 382.525 193.4C386.925 195.667 390.658 196.8 393.725 196.8C397.592 196.8 400.925 195.333 403.725 192.4C406.658 189.333 409.925 183.933 413.525 176.2L417.525 178.4C415.258 183.467 412.992 187.8 410.725 191.4C408.592 194.867 406.258 197.733 403.725 200C401.325 202.133 398.725 203.667 395.925 204.6C393.258 205.667 390.258 206.2 386.925 206.2C383.192 206.2 378.992 205.067 374.325 202.8C369.658 200.533 364.792 197.933 359.725 195C354.792 191.933 349.925 189.267 345.125 187C340.458 184.733 336.125 183.6 332.125 183.6C329.992 183.6 328.258 184.4 326.925 186C325.592 187.467 324.925 189.467 324.925 192C325.858 193.733 327.392 195.867 329.525 198.4C331.658 200.8 332.992 203.067 333.525 205.2ZM573.888 65.6C573.888 71.3333 572.554 77.2 569.888 83.2C567.354 89.0667 563.821 94.8 559.288 100.4C554.754 105.867 549.488 110.8 543.488 115.2C537.621 119.467 531.288 122.867 524.488 125.4C517.688 127.933 510.821 129.2 503.888 129.2C495.354 129.2 488.354 126.8 482.888 122C477.421 117.067 474.688 110.667 474.688 102.8C474.688 95.2 476.288 88.4 479.488 82.4C482.821 76.4 487.288 71.6667 492.888 68.2C498.488 64.7333 504.888 63 512.088 63C519.688 63 525.688 65.2667 530.088 69.8C534.488 74.3333 537.688 80.2 539.688 87.4C541.821 94.4667 543.021 102 543.288 110C549.554 105.2 554.754 99.7333 558.888 93.6C563.021 87.3333 565.088 81.1333 565.088 75C565.088 69.9333 564.421 65.8667 563.088 62.8C561.888 59.7333 559.888 56.7333 557.088 53.8L557.888 53C560.154 53.2667 562.354 53.6 564.488 54C566.754 54.2667 568.821 54.9333 570.688 56C571.754 56.5333 572.554 57.7333 573.088 59.6C573.621 61.3333 573.888 63.3333 573.888 65.6ZM481.288 101.8C481.288 108.733 483.488 114.2 487.888 118.2C492.421 122.2 498.554 124.2 506.288 124.2C510.154 124.2 514.021 123.667 517.888 122.6C521.888 121.533 525.821 120.067 529.688 118.2C529.688 112.333 529.288 106.467 528.488 100.6C527.688 94.7333 526.421 89.4 524.688 84.6C522.954 79.6667 520.554 75.7333 517.488 72.8C514.421 69.8667 510.554 68.4 505.888 68.4C502.554 68.4 498.954 69.8 495.088 72.6C491.221 75.2667 487.954 79.0667 485.288 84C482.621 88.9333 481.288 94.8667 481.288 101.8ZM529.288 127C531.554 126.333 533.954 125.4 536.488 124.2C539.154 123 541.354 121.533 543.088 119.8C543.088 119.933 543.088 120.267 543.088 120.8C543.088 121.333 543.088 121.667 543.088 121.8C543.088 130.6 541.688 139.133 538.888 147.4C536.221 155.667 532.488 163.333 527.688 170.4C522.888 177.467 517.288 183.667 510.888 189C504.488 194.333 497.621 198.533 490.288 201.6C483.088 204.533 475.688 206 468.088 206C461.554 206 455.754 204.533 450.688 201.6C445.754 198.667 441.888 194.333 439.088 188.6C436.421 182.867 435.088 175.933 435.088 167.8C435.088 162.333 435.688 156.8 436.888 151.2C438.221 145.467 440.088 139.933 442.488 134.6C445.021 129.133 448.021 124 451.488 119.2C455.088 114.4 459.154 110.2 463.688 106.6C463.954 106.867 464.421 107.533 465.088 108.6C465.754 109.533 466.221 110.2 466.488 110.6C460.888 115.933 456.354 123.133 452.888 132.2C449.554 141.267 447.888 150.733 447.888 160.6C447.888 167.133 448.621 172.867 450.088 177.8C451.688 182.733 453.821 186.867 456.488 190.2C459.288 193.533 462.554 196.067 466.288 197.8C470.154 199.4 474.288 200.2 478.688 200.2C485.088 200.2 491.154 198.067 496.888 193.8C502.621 189.4 507.754 183.667 512.288 176.6C516.954 169.4 520.754 161.533 523.688 153C526.621 144.333 528.488 135.667 529.288 127Z" fill="#FBD2F6" fill-opacity="0.7"/>
<path d="M604.25 77.85C601.45 77.85 598.95 77.1833 596.75 75.85C594.55 74.4833 592.817 72.65 591.55 70.35C590.317 68.05 589.7 65.4833 589.7 62.65C589.7 59.5167 590.267 56.7 591.4 54.2C592.567 51.6667 594.1 49.5 596 47.7C597.9 45.9 600 44.5333 602.3 43.6C604.6 42.6333 606.917 42.15 609.25 42.15C612.05 42.15 614.533 42.8333 616.7 44.2C618.9 45.5333 620.617 47.35 621.85 49.65C623.117 51.9167 623.75 54.4833 623.75 57.35C623.75 60.4833 623.167 63.3167 622 65.85C620.867 68.35 619.35 70.5 617.45 72.3C615.55 74.1 613.45 75.4833 611.15 76.45C608.85 77.3833 606.55 77.85 604.25 77.85ZM604.4 76.6C606.5 76.6 608.583 76.1667 610.65 75.3C612.75 74.4 614.65 73.1167 616.35 71.45C618.083 69.7833 619.467 67.7667 620.5 65.4C621.567 63.0333 622.1 60.3833 622.1 57.45C622.1 54.8167 621.533 52.4333 620.4 50.3C619.3 48.1667 617.767 46.4833 615.8 45.25C613.867 43.9833 611.633 43.35 609.1 43.35C607 43.35 604.9 43.8 602.8 44.7C600.7 45.6 598.783 46.8833 597.05 48.55C595.35 50.2167 593.967 52.2333 592.9 54.6C591.867 56.9667 591.35 59.6167 591.35 62.55C591.35 65.1833 591.9 67.5667 593 69.7C594.133 71.8 595.683 73.4833 597.65 74.75C599.617 75.9833 601.867 76.6 604.4 76.6ZM612.75 67.5L612.85 67.65V68.5C611.583 69.6333 610.283 70.5667 608.95 71.3C607.617 72.0333 606.067 72.4 604.3 72.4C601.867 72.4 599.933 71.5333 598.5 69.8C597.1 68.0667 596.4 65.85 596.4 63.15C596.4 61.4833 596.7 59.7333 597.3 57.9C597.9 56.0333 598.767 54.3 599.9 52.7C601.067 51.0667 602.467 49.7333 604.1 48.7C605.733 47.6667 607.583 47.15 609.65 47.15C610.517 47.15 611.317 47.2667 612.05 47.5C612.783 47.7333 613.383 48.1333 613.85 48.7C614.317 49.2667 614.55 50.0667 614.55 51.1C614.55 51.5667 614.467 52.0833 614.3 52.65C614.133 53.1833 613.9 53.65 613.6 54.05C613.1 54.3833 612.6 54.6833 612.1 54.95C611.6 55.2167 610.983 55.4833 610.25 55.75L609.95 55.45C610.717 54.85 611.317 54.15 611.75 53.35C612.217 52.5167 612.45 51.6833 612.45 50.85C612.45 49.85 612.117 49.1833 611.45 48.85C610.783 48.4833 610.033 48.3 609.2 48.3C607.667 48.3 606.25 48.7167 604.95 49.55C603.683 50.3833 602.567 51.5167 601.6 52.95C600.633 54.35 599.883 55.9167 599.35 57.65C598.817 59.3833 598.55 61.15 598.55 62.95C598.55 65.55 599.1 67.5667 600.2 69C601.333 70.4 603 71.1 605.2 71.1C606.867 71.1 608.267 70.75 609.4 70.05C610.567 69.3167 611.683 68.4667 612.75 67.5Z" fill="#FBD2F6" fill-opacity="0.7"/>
</svg>
