<svg xmlns="http://www.w3.org/2000/svg" viewBox="0 0 32 16" width="64" height="32">
  <path fill="#000000" d="M4,8h8v1H4c-1.105,0-2,0.895-2,2v2c0,1.105,0.895,2,2,2h8v1H4C1.792,15,0,13.209,0,11V5 c0-2.209,1.792-4,4-4h8v1H4C2.343,2,1,3.343,1,5v6c0,1.657,1.343,3,3,3h8v1H4C1.783,15,0,13.217,0,11V5C0,2.794,1.794,1,4,1h8v1H4 c-0.553,0-1,0.447-1,1v6c0,0.553,0.447,1,1,1h8v1H4C2.346,10,1,8.654,1,7S2.346,4,4,4h8v1H4C3.448,5,3,5.448,3,6S3.448,7,4,7 h8v1H4C3.448,8,3,8.448,3,9S3.448,10,4,10h8v1H4C3.448,11,3,11.448,3,12v2c0,0.552,0.448,1,1,1h8v1H4C2.343,16,1,14.657,1,13V3 c0-1.657,1.343-3,3-3h8v1H4C2.343,1,1,2.343,1,4v8c0,1.657,1.343,3,3,3h8v1H4C2.343,16,1,14.657,1,13V5C1,3.343,2.343,2,4,2 h8v1H4C3.447,3,3,3.447,3,4v8c0,0.553,0.447,1,1,1h8v1H4C2.346,14,1,12.654,1,11S2.346,8,4,8z"/>
</svg>
