<svg width="196" height="196" viewBox="0 0 196 196" fill="none" xmlns="http://www.w3.org/2000/svg">
<circle cx="98" cy="98" r="96.5" fill="white" stroke="black" stroke-width="3"/>
<path d="M70.448 136V50.752C72.4107 50.6667 74.6293 50.624 77.104 50.624C79.5787 50.624 82.1387 50.624 84.784 50.624C87.4293 50.624 90.032 50.624 92.592 50.624C95.152 50.624 97.3707 50.6667 99.248 50.752C109.317 51.0933 116.656 53.568 121.264 58.176C125.872 62.6987 128.176 68.5013 128.176 75.584C128.176 81.8133 126.555 87.1467 123.312 91.584C120.155 95.936 115.717 98.8373 110 100.288C111.963 101.824 113.883 103.915 115.76 106.56C117.637 109.12 120.155 112.917 123.312 117.952C124.933 120.427 126.256 122.603 127.28 124.48C128.389 126.357 129.456 128.192 130.48 129.984C131.504 131.691 132.656 133.696 133.936 136H112.432L97.968 109.12C96.3467 106.133 94.896 104.341 93.616 103.744C92.336 103.061 90.544 102.72 88.24 102.72V136H70.448ZM88.24 88.512H96.176C100.613 88.512 104.069 87.4027 106.544 85.184C109.019 82.9653 110.256 79.9787 110.256 76.224C110.256 69.2267 105.904 65.728 97.2 65.728H88.24V88.512Z" fill="black"/>
</svg>
