<svg width="221" height="231" viewBox="0 0 221 231" fill="none" xmlns="http://www.w3.org/2000/svg">
<path d="M66.2 186V52.8C69.2667 52.6667 72.7333 52.6 76.6 52.6C80.4667 52.6 84.4667 52.6 88.6 52.6C92.7333 52.6 96.8 52.6 100.8 52.6C104.8 52.6 108.267 52.6667 111.2 52.8C126.933 53.3333 138.4 57.2 145.6 64.4C152.8 71.4667 156.4 80.5333 156.4 91.6C156.4 101.333 153.867 109.667 148.8 116.6C143.867 123.4 136.933 127.933 128 130.2C131.067 132.6 134.067 135.867 137 140C139.933 144 143.867 149.933 148.8 157.8C151.333 161.667 153.4 165.067 155 168C156.733 170.933 158.4 173.8 160 176.6C161.6 179.267 163.4 182.4 165.4 186H131.8L109.2 144C106.667 139.333 104.4 136.533 102.4 135.6C100.4 134.533 97.6 134 94 134V186H66.2ZM94 111.8H106.4C113.333 111.8 118.733 110.067 122.6 106.6C126.467 103.133 128.4 98.4667 128.4 92.6C128.4 81.6667 121.6 76.2 108 76.2H94V111.8Z" fill="black"/>
</svg>
