<svg width="148" height="43" viewBox="0 0 148 43" fill="none" xmlns="http://www.w3.org/2000/svg">
<path d="M48.8174 31.3413C48.8174 32.9819 48.6021 34.4072 48.1714 35.6172C47.7407 36.8271 47.1357 37.873 46.3564 38.7549C45.5977 39.6162 44.6748 40.3237 43.5879 40.8774C42.5215 41.4106 41.332 41.8413 40.0195 42.1694C38.7275 42.4771 37.3433 42.6924 35.8667 42.8154C34.3901 42.9385 32.8623 43 31.2832 43H0.61377V0.733398H30.7295C31.9395 0.733398 33.1494 0.784668 34.3594 0.887207C35.5898 0.989746 36.7588 1.18457 37.8662 1.47168C38.9736 1.73828 39.999 2.11768 40.9424 2.60986C41.9062 3.10205 42.7368 3.74805 43.4341 4.54785C44.1519 5.34766 44.7056 6.31152 45.0952 7.43945C45.5054 8.56738 45.7104 9.90039 45.7104 11.4385C45.7104 14.1865 45.0337 16.3706 43.6802 17.9907C42.3267 19.5903 40.1938 20.6567 37.2817 21.1899C39.3325 21.3335 41.0859 21.6514 42.542 22.1436C44.0186 22.6152 45.2183 23.2715 46.1411 24.1123C47.064 24.9326 47.7407 25.9478 48.1714 27.1577C48.6021 28.3472 48.8174 29.7417 48.8174 31.3413ZM34.5747 13.2534C34.5747 12.7202 34.4927 12.2178 34.3286 11.7461C34.1646 11.2539 33.8672 10.8232 33.4365 10.4541C33.0059 10.085 32.4214 9.7876 31.6831 9.56201C30.9448 9.33643 30.0015 9.22363 28.853 9.22363H12.0264V17.1602H28.853C30.0015 17.1602 30.9448 17.0576 31.6831 16.8525C32.4214 16.6475 33.0059 16.3706 33.4365 16.022C33.8672 15.6733 34.1646 15.2632 34.3286 14.7915C34.4927 14.2993 34.5747 13.7866 34.5747 13.2534ZM37.2202 30.0186C37.2202 29.0547 37.0562 28.2856 36.728 27.7114C36.3999 27.1167 35.8872 26.6655 35.1899 26.3579C34.4927 26.0298 33.5903 25.8145 32.4829 25.7119C31.3755 25.6094 30.0527 25.5581 28.5146 25.5581H12.0264V34.5098H28.5146C30.0527 34.5098 31.3755 34.4585 32.4829 34.356C33.5903 34.2534 34.4927 34.0381 35.1899 33.71C35.8872 33.3818 36.3999 32.9307 36.728 32.3564C37.0562 31.7617 37.2202 30.9824 37.2202 30.0186ZM73.3037 43H60.5684L82.6245 9.93115H53.8931V0.733398H96.0981V8.54688L73.3037 43ZM137.842 34.6943V43H126.521V34.6943H99.605V25.6812L123.814 0.733398H137.842V25.6812H147.439V34.6943H137.842ZM126.521 10.6694L111.971 25.6812H126.521V10.6694Z" fill="#003E9B"/>
</svg>
